<svg xmlns="http://www.w3.org/2000/svg" viewBox="0 0 400 300" width="400" height="300" role="img" aria-label="mem_002">
  <defs>
    <linearGradient id="bg" x1="0" y1="0" x2="1" y2="1">
      <stop offset="0" stop-color="#16403f"/><stop offset="1" stop-color="#0e3038"/>
    </linearGradient>
    <radialGradient id="gl" cx="0.72" cy="0.12" r="0.7">
      <stop offset="0" stop-color="rgba(34,211,197,0.30)"/><stop offset="0.6" stop-color="rgba(34,211,197,0)"/>
    </radialGradient>
    <pattern id="grid" width="32" height="32" patternUnits="userSpaceOnUse">
      <path d="M32 0 H0 V32" fill="none" stroke="rgba(255,255,255,0.05)" stroke-width="1"/>
    </pattern>
  </defs>
  <rect width="400" height="300" fill="url(#bg)"/>
  <rect width="400" height="300" fill="url(#grid)"/>
  <rect width="400" height="300" fill="url(#gl)"/>
  <g fill="none" stroke="rgba(34,211,197,0.5)" stroke-width="1.5">
    <path d="M16 16 h14 M16 16 v14"/><path d="M384 16 h-14 M384 16 v14"/>
    <path d="M16 284 h14 M16 284 v-14"/><path d="M384 284 h-14 M384 284 v-14"/>
  </g>
  <g transform="translate(200,150)" fill="none" stroke="#bff7f0" stroke-width="6" stroke-linecap="round" stroke-linejoin="round">
    <rect x="-92" y="-58" width="184" height="116" rx="16" transform="rotate(-7)"/>
    <path d="M-66 -6 L-50 -30 L-30 -12 L-10 -34 L-10 -6 Z" transform="rotate(-7)"/>
    <path d="M28 -30 l7 14 16 2 -12 11 3 16 -14 -8 -14 8 3 -16 -12 -11 16 -2 z" transform="rotate(-7)"/>
  </g>
  <text x="20" y="282" font-family="IBM Plex Mono, monospace" font-size="12" fill="rgba(255,255,255,0.28)">mem_002</text>
</svg>