<svg xmlns="http://www.w3.org/2000/svg" viewBox="0 0 400 300" width="400" height="300" role="img" aria-label="svc_charge_001">
  <defs>
    <linearGradient id="bg" x1="0" y1="0" x2="1" y2="1">
      <stop offset="0" stop-color="#3a2c16"/><stop offset="1" stop-color="#1c1610"/>
    </linearGradient>
    <radialGradient id="gl" cx="0.72" cy="0.12" r="0.7">
      <stop offset="0" stop-color="rgba(255,176,32,0.30)"/><stop offset="0.6" stop-color="rgba(255,176,32,0)"/>
    </radialGradient>
    <pattern id="grid" width="32" height="32" patternUnits="userSpaceOnUse">
      <path d="M32 0 H0 V32" fill="none" stroke="rgba(255,255,255,0.05)" stroke-width="1"/>
    </pattern>
  </defs>
  <rect width="400" height="300" fill="url(#bg)"/>
  <rect width="400" height="300" fill="url(#grid)"/>
  <rect width="400" height="300" fill="url(#gl)"/>
  <g fill="none" stroke="rgba(255,176,32,0.5)" stroke-width="1.5">
    <path d="M16 16 h14 M16 16 v14"/><path d="M384 16 h-14 M384 16 v14"/>
    <path d="M16 284 h14 M16 284 v-14"/><path d="M384 284 h-14 M384 284 v-14"/>
  </g>
  <g transform="translate(200,150)" fill="none" stroke="#ffb020" stroke-width="6" stroke-linecap="round" stroke-linejoin="round">
    <path d="M-80 60 L-80 6 L-54 6 L-54 -22 L-26 -22 L-26 6 L80 6 L80 60 Z" opacity="0.5"/>
    <line x1="-66" y1="20" x2="-66" y2="44"/><line x1="-40" y1="20" x2="-40" y2="44"/>
    <line x1="0" y1="20" x2="0" y2="44"/><line x1="26" y1="20" x2="26" y2="44"/><line x1="52" y1="20" x2="52" y2="44"/>
    <path d="M18 -64 L-18 -6 L6 -6 L-6 56 L34 -14 L8 -14 Z" fill="rgba(255,176,32,0.18)"/>
  </g>
  <text x="20" y="282" font-family="IBM Plex Mono, monospace" font-size="12" fill="rgba(255,255,255,0.28)">svc_charge_001</text>
</svg>